<mxfile compressed="false" host="app.diagrams.net" modified="2022-03-03T17:24:51.699Z" agent="5.0 (Windows NT 10.0; Win64; x64) AppleWebKit/537.36 (KHTML, like Gecko) Chrome/98.0.4758.102 Safari/537.36 Edg/98.0.1108.62" version="16.6.5" etag="aXrmpadHo6dFY73Eeekc" type="device">
  <diagram id="85OPB4iYP1H9sOdMJJdA" name="Page-1">
    <mxGraphModel dx="599" dy="332" grid="1" gridSize="10" guides="1" tooltips="1" connect="1" arrows="1" fold="1" page="1" pageScale="1" pageWidth="827" pageHeight="1169" math="0" shadow="0">
      <root>
        <mxCell id="0" />
        <mxCell id="1" parent="0" />
        <mxCell id="7WhLit7YFjIoFo8CH_9x-5" style="edgeStyle=orthogonalEdgeStyle;rounded=0;orthogonalLoop=1;jettySize=auto;html=1;entryX=0;entryY=0.5;entryDx=0;entryDy=0;" edge="1" parent="1" source="7WhLit7YFjIoFo8CH_9x-1" target="7WhLit7YFjIoFo8CH_9x-4">
          <mxGeometry relative="1" as="geometry">
            <Array as="points">
              <mxPoint x="125" y="290" />
            </Array>
          </mxGeometry>
        </mxCell>
        <mxCell id="7WhLit7YFjIoFo8CH_9x-1" value="&lt;div&gt;Get Customer Information&lt;/div&gt;" style="rounded=1;whiteSpace=wrap;html=1;strokeWidth=1;" vertex="1" parent="1">
          <mxGeometry x="40" y="150" width="170" height="50" as="geometry" />
        </mxCell>
        <mxCell id="7WhLit7YFjIoFo8CH_9x-3" style="edgeStyle=orthogonalEdgeStyle;rounded=0;orthogonalLoop=1;jettySize=auto;html=1;entryX=0.118;entryY=0;entryDx=0;entryDy=0;entryPerimeter=0;" edge="1" parent="1" source="7WhLit7YFjIoFo8CH_9x-2" target="7WhLit7YFjIoFo8CH_9x-1">
          <mxGeometry relative="1" as="geometry" />
        </mxCell>
        <mxCell id="7WhLit7YFjIoFo8CH_9x-2" value="" style="shape=ellipse;html=1;fillColor=#000000;strokeWidth=2;verticalLabelPosition=bottom;verticalAlignment=top;perimeter=ellipsePerimeter;" vertex="1" parent="1">
          <mxGeometry x="40" y="40" width="40" height="40" as="geometry" />
        </mxCell>
        <mxCell id="7WhLit7YFjIoFo8CH_9x-8" style="edgeStyle=orthogonalEdgeStyle;rounded=0;orthogonalLoop=1;jettySize=auto;html=1;entryX=0;entryY=0.5;entryDx=0;entryDy=0;" edge="1" parent="1" source="7WhLit7YFjIoFo8CH_9x-4" target="7WhLit7YFjIoFo8CH_9x-6">
          <mxGeometry relative="1" as="geometry" />
        </mxCell>
        <mxCell id="7WhLit7YFjIoFo8CH_9x-4" value="&lt;div&gt;Authenticate&lt;/div&gt;" style="rounded=1;whiteSpace=wrap;html=1;strokeWidth=1;" vertex="1" parent="1">
          <mxGeometry x="210" y="270" width="120" height="40" as="geometry" />
        </mxCell>
        <mxCell id="7WhLit7YFjIoFo8CH_9x-10" style="edgeStyle=orthogonalEdgeStyle;rounded=0;orthogonalLoop=1;jettySize=auto;html=1;entryX=0.5;entryY=0;entryDx=0;entryDy=0;" edge="1" parent="1" source="7WhLit7YFjIoFo8CH_9x-6" target="7WhLit7YFjIoFo8CH_9x-9">
          <mxGeometry relative="1" as="geometry" />
        </mxCell>
        <mxCell id="7WhLit7YFjIoFo8CH_9x-12" style="edgeStyle=orthogonalEdgeStyle;rounded=0;orthogonalLoop=1;jettySize=auto;html=1;entryX=0.5;entryY=1;entryDx=0;entryDy=0;" edge="1" parent="1" source="7WhLit7YFjIoFo8CH_9x-6" target="7WhLit7YFjIoFo8CH_9x-11">
          <mxGeometry relative="1" as="geometry" />
        </mxCell>
        <mxCell id="7WhLit7YFjIoFo8CH_9x-6" value="Success?" style="rhombus;whiteSpace=wrap;html=1;" vertex="1" parent="1">
          <mxGeometry x="380" y="250" width="80" height="80" as="geometry" />
        </mxCell>
        <mxCell id="7WhLit7YFjIoFo8CH_9x-9" value="&lt;div&gt;Authenticate Failure&lt;/div&gt;" style="rounded=1;whiteSpace=wrap;html=1;strokeWidth=1;" vertex="1" parent="1">
          <mxGeometry x="360" y="370" width="120" height="40" as="geometry" />
        </mxCell>
        <mxCell id="7WhLit7YFjIoFo8CH_9x-15" style="edgeStyle=orthogonalEdgeStyle;rounded=0;orthogonalLoop=1;jettySize=auto;html=1;" edge="1" parent="1" source="7WhLit7YFjIoFo8CH_9x-11">
          <mxGeometry relative="1" as="geometry">
            <mxPoint x="560" y="180" as="targetPoint" />
          </mxGeometry>
        </mxCell>
        <mxCell id="7WhLit7YFjIoFo8CH_9x-11" value="&lt;div&gt;Services&lt;/div&gt;" style="rounded=1;whiteSpace=wrap;html=1;strokeWidth=1;" vertex="1" parent="1">
          <mxGeometry x="360" y="160" width="120" height="40" as="geometry" />
        </mxCell>
        <mxCell id="7WhLit7YFjIoFo8CH_9x-14" value="" style="line;strokeWidth=10;html=1;rotation=90;" vertex="1" parent="1">
          <mxGeometry x="438.75" y="178.75" width="247.5" height="10" as="geometry" />
        </mxCell>
        <mxCell id="7WhLit7YFjIoFo8CH_9x-16" value="&lt;div&gt;ACCOUNT SERVICES&lt;/div&gt;" style="rounded=1;whiteSpace=wrap;html=1;strokeWidth=1;" vertex="1" parent="1">
          <mxGeometry x="610" y="80" width="150" height="40" as="geometry" />
        </mxCell>
        <mxCell id="7WhLit7YFjIoFo8CH_9x-17" value="&lt;div&gt;CARD SERVICES&lt;/div&gt;" style="rounded=1;whiteSpace=wrap;html=1;strokeWidth=1;" vertex="1" parent="1">
          <mxGeometry x="610" y="160" width="150" height="40" as="geometry" />
        </mxCell>
        <mxCell id="7WhLit7YFjIoFo8CH_9x-18" value="&lt;div&gt;DEMAT SERVICES&lt;/div&gt;" style="rounded=1;whiteSpace=wrap;html=1;strokeWidth=1;" vertex="1" parent="1">
          <mxGeometry x="610" y="230" width="150" height="40" as="geometry" />
        </mxCell>
        <mxCell id="7WhLit7YFjIoFo8CH_9x-19" value="" style="endArrow=block;endSize=16;endFill=0;html=1;rounded=0;exitX=0.161;exitY=0.443;exitDx=0;exitDy=0;exitPerimeter=0;" edge="1" parent="1" source="7WhLit7YFjIoFo8CH_9x-14">
          <mxGeometry width="160" relative="1" as="geometry">
            <mxPoint x="609.31" y="160" as="sourcePoint" />
            <mxPoint x="609.31" y="100" as="targetPoint" />
          </mxGeometry>
        </mxCell>
        <mxCell id="7WhLit7YFjIoFo8CH_9x-20" value="" style="endArrow=block;endSize=16;endFill=0;html=1;rounded=0;exitX=0.161;exitY=0.443;exitDx=0;exitDy=0;exitPerimeter=0;" edge="1" parent="1">
          <mxGeometry width="160" relative="1" as="geometry">
            <mxPoint x="563.76" y="183.41" as="sourcePoint" />
            <mxPoint x="610" y="183.56250000000003" as="targetPoint" />
          </mxGeometry>
        </mxCell>
        <mxCell id="7WhLit7YFjIoFo8CH_9x-21" value="" style="endArrow=block;endSize=16;endFill=0;html=1;rounded=0;exitX=0.161;exitY=0.443;exitDx=0;exitDy=0;exitPerimeter=0;" edge="1" parent="1">
          <mxGeometry width="160" relative="1" as="geometry">
            <mxPoint x="563.76" y="250" as="sourcePoint" />
            <mxPoint x="610" y="250.15250000000003" as="targetPoint" />
          </mxGeometry>
        </mxCell>
        <mxCell id="7WhLit7YFjIoFo8CH_9x-23" value="" style="endArrow=block;endSize=16;endFill=0;html=1;rounded=0;" edge="1" parent="1">
          <mxGeometry width="160" relative="1" as="geometry">
            <mxPoint x="760" y="100" as="sourcePoint" />
            <mxPoint x="845.0000000000002" y="77.5" as="targetPoint" />
            <Array as="points">
              <mxPoint x="800" y="100" />
              <mxPoint x="800" y="78" />
            </Array>
          </mxGeometry>
        </mxCell>
        <mxCell id="7WhLit7YFjIoFo8CH_9x-24" value="" style="endArrow=block;endSize=16;endFill=0;html=1;rounded=0;exitX=1;exitY=0.5;exitDx=0;exitDy=0;" edge="1" parent="1" source="7WhLit7YFjIoFo8CH_9x-17">
          <mxGeometry width="160" relative="1" as="geometry">
            <mxPoint x="766" y="179.66" as="sourcePoint" />
            <mxPoint x="846" y="180" as="targetPoint" />
            <Array as="points">
              <mxPoint x="816" y="180" />
            </Array>
          </mxGeometry>
        </mxCell>
        <mxCell id="7WhLit7YFjIoFo8CH_9x-25" value="" style="endArrow=block;endSize=16;endFill=0;html=1;rounded=0;exitX=0.161;exitY=0.443;exitDx=0;exitDy=0;exitPerimeter=0;entryX=0;entryY=0.5;entryDx=0;entryDy=0;" edge="1" parent="1" target="7WhLit7YFjIoFo8CH_9x-43">
          <mxGeometry width="160" relative="1" as="geometry">
            <mxPoint x="760" y="250" as="sourcePoint" />
            <mxPoint x="806.24" y="250.15250000000003" as="targetPoint" />
            <Array as="points">
              <mxPoint x="790" y="250" />
              <mxPoint x="790" y="280" />
            </Array>
          </mxGeometry>
        </mxCell>
        <mxCell id="7WhLit7YFjIoFo8CH_9x-27" value="" style="line;strokeWidth=10;html=1;rotation=90;" vertex="1" parent="1">
          <mxGeometry x="797.5" y="67.5" width="105" height="10" as="geometry" />
        </mxCell>
        <mxCell id="7WhLit7YFjIoFo8CH_9x-28" value="&lt;div&gt;Fixed Deposit&lt;/div&gt;" style="rounded=1;whiteSpace=wrap;html=1;strokeWidth=1;" vertex="1" parent="1">
          <mxGeometry x="896" y="20" width="104" height="40" as="geometry" />
        </mxCell>
        <mxCell id="7WhLit7YFjIoFo8CH_9x-29" value="" style="endArrow=block;endSize=16;endFill=0;html=1;rounded=0;exitX=0.161;exitY=0.443;exitDx=0;exitDy=0;exitPerimeter=0;" edge="1" parent="1">
          <mxGeometry width="160" relative="1" as="geometry">
            <mxPoint x="850" y="39.66" as="sourcePoint" />
            <mxPoint x="896.24" y="39.81250000000003" as="targetPoint" />
          </mxGeometry>
        </mxCell>
        <mxCell id="7WhLit7YFjIoFo8CH_9x-30" value="&lt;div&gt;Account Opening&lt;/div&gt;" style="rounded=1;whiteSpace=wrap;html=1;strokeWidth=1;" vertex="1" parent="1">
          <mxGeometry x="896" y="80" width="104" height="40" as="geometry" />
        </mxCell>
        <mxCell id="7WhLit7YFjIoFo8CH_9x-31" value="" style="endArrow=block;endSize=16;endFill=0;html=1;rounded=0;exitX=0.161;exitY=0.443;exitDx=0;exitDy=0;exitPerimeter=0;" edge="1" parent="1">
          <mxGeometry width="160" relative="1" as="geometry">
            <mxPoint x="849.9999999999998" y="99.65999999999997" as="sourcePoint" />
            <mxPoint x="896.24" y="99.8125" as="targetPoint" />
          </mxGeometry>
        </mxCell>
        <mxCell id="7WhLit7YFjIoFo8CH_9x-36" value="" style="line;strokeWidth=10;html=1;rotation=90;" vertex="1" parent="1">
          <mxGeometry x="797.5" y="181.25" width="105" height="10" as="geometry" />
        </mxCell>
        <mxCell id="7WhLit7YFjIoFo8CH_9x-37" value="CREDIT CARD" style="rounded=1;whiteSpace=wrap;html=1;strokeWidth=1;" vertex="1" parent="1">
          <mxGeometry x="896" y="133.75" width="104" height="40" as="geometry" />
        </mxCell>
        <mxCell id="7WhLit7YFjIoFo8CH_9x-38" value="" style="endArrow=block;endSize=16;endFill=0;html=1;rounded=0;exitX=0.161;exitY=0.443;exitDx=0;exitDy=0;exitPerimeter=0;" edge="1" parent="1">
          <mxGeometry width="160" relative="1" as="geometry">
            <mxPoint x="849.9999999999998" y="153.40999999999997" as="sourcePoint" />
            <mxPoint x="896.24" y="153.5625" as="targetPoint" />
          </mxGeometry>
        </mxCell>
        <mxCell id="7WhLit7YFjIoFo8CH_9x-39" value="&lt;div&gt;DEBIT CARD&lt;/div&gt;" style="rounded=1;whiteSpace=wrap;html=1;strokeWidth=1;" vertex="1" parent="1">
          <mxGeometry x="896" y="193.75" width="104" height="40" as="geometry" />
        </mxCell>
        <mxCell id="7WhLit7YFjIoFo8CH_9x-40" value="" style="endArrow=block;endSize=16;endFill=0;html=1;rounded=0;exitX=0.161;exitY=0.443;exitDx=0;exitDy=0;exitPerimeter=0;" edge="1" parent="1">
          <mxGeometry width="160" relative="1" as="geometry">
            <mxPoint x="849.9999999999998" y="213.40999999999997" as="sourcePoint" />
            <mxPoint x="896.24" y="213.5625" as="targetPoint" />
          </mxGeometry>
        </mxCell>
        <mxCell id="7WhLit7YFjIoFo8CH_9x-62" style="edgeStyle=orthogonalEdgeStyle;rounded=0;orthogonalLoop=1;jettySize=auto;html=1;entryX=0.5;entryY=0;entryDx=0;entryDy=0;entryPerimeter=0;" edge="1" parent="1" source="7WhLit7YFjIoFo8CH_9x-43" target="7WhLit7YFjIoFo8CH_9x-61">
          <mxGeometry relative="1" as="geometry" />
        </mxCell>
        <mxCell id="7WhLit7YFjIoFo8CH_9x-43" value="View CRN" style="rounded=1;whiteSpace=wrap;html=1;strokeWidth=1;" vertex="1" parent="1">
          <mxGeometry x="827" y="260" width="104" height="40" as="geometry" />
        </mxCell>
        <mxCell id="7WhLit7YFjIoFo8CH_9x-47" value="" style="endArrow=block;endSize=16;endFill=0;html=1;rounded=0;exitX=0.161;exitY=0.443;exitDx=0;exitDy=0;exitPerimeter=0;entryX=0;entryY=0.5;entryDx=0;entryDy=0;" edge="1" parent="1" target="7WhLit7YFjIoFo8CH_9x-48">
          <mxGeometry width="160" relative="1" as="geometry">
            <mxPoint x="1000" y="39.66" as="sourcePoint" />
            <mxPoint x="1080" as="targetPoint" />
            <Array as="points">
              <mxPoint x="1030" y="40" />
            </Array>
          </mxGeometry>
        </mxCell>
        <mxCell id="7WhLit7YFjIoFo8CH_9x-64" style="edgeStyle=orthogonalEdgeStyle;rounded=0;orthogonalLoop=1;jettySize=auto;html=1;entryX=0;entryY=0.5;entryDx=0;entryDy=0;entryPerimeter=0;" edge="1" parent="1" source="7WhLit7YFjIoFo8CH_9x-48" target="7WhLit7YFjIoFo8CH_9x-63">
          <mxGeometry relative="1" as="geometry" />
        </mxCell>
        <mxCell id="7WhLit7YFjIoFo8CH_9x-48" value="&lt;div&gt;APPLY FOR FIXED DEPOSIT&lt;/div&gt;" style="rounded=1;whiteSpace=wrap;html=1;strokeWidth=1;" vertex="1" parent="1">
          <mxGeometry x="1080" y="20" width="140" height="40" as="geometry" />
        </mxCell>
        <mxCell id="7WhLit7YFjIoFo8CH_9x-65" style="edgeStyle=orthogonalEdgeStyle;rounded=0;orthogonalLoop=1;jettySize=auto;html=1;entryX=0;entryY=0.5;entryDx=0;entryDy=0;entryPerimeter=0;" edge="1" parent="1" source="7WhLit7YFjIoFo8CH_9x-49" target="7WhLit7YFjIoFo8CH_9x-63">
          <mxGeometry relative="1" as="geometry" />
        </mxCell>
        <mxCell id="7WhLit7YFjIoFo8CH_9x-49" value="&lt;div&gt;Account Opening Form&lt;/div&gt;" style="rounded=1;whiteSpace=wrap;html=1;strokeWidth=1;" vertex="1" parent="1">
          <mxGeometry x="1080" y="80" width="140" height="40" as="geometry" />
        </mxCell>
        <mxCell id="7WhLit7YFjIoFo8CH_9x-50" value="" style="endArrow=block;endSize=16;endFill=0;html=1;rounded=0;exitX=0.161;exitY=0.443;exitDx=0;exitDy=0;exitPerimeter=0;entryX=0;entryY=0.5;entryDx=0;entryDy=0;" edge="1" parent="1" target="7WhLit7YFjIoFo8CH_9x-49">
          <mxGeometry width="160" relative="1" as="geometry">
            <mxPoint x="1000" y="99.66" as="sourcePoint" />
            <mxPoint x="1046.2400000000002" y="99.81250000000014" as="targetPoint" />
            <Array as="points">
              <mxPoint x="1020" y="99.66" />
            </Array>
          </mxGeometry>
        </mxCell>
        <mxCell id="7WhLit7YFjIoFo8CH_9x-66" style="edgeStyle=orthogonalEdgeStyle;rounded=0;orthogonalLoop=1;jettySize=auto;html=1;entryX=0;entryY=0.5;entryDx=0;entryDy=0;entryPerimeter=0;" edge="1" parent="1" source="7WhLit7YFjIoFo8CH_9x-51" target="7WhLit7YFjIoFo8CH_9x-63">
          <mxGeometry relative="1" as="geometry" />
        </mxCell>
        <mxCell id="7WhLit7YFjIoFo8CH_9x-51" value="&lt;div&gt;Credit Card Request&lt;/div&gt;" style="rounded=1;whiteSpace=wrap;html=1;strokeWidth=1;" vertex="1" parent="1">
          <mxGeometry x="1080" y="133.75" width="140" height="40" as="geometry" />
        </mxCell>
        <mxCell id="7WhLit7YFjIoFo8CH_9x-52" value="" style="endArrow=block;endSize=16;endFill=0;html=1;rounded=0;exitX=0.161;exitY=0.443;exitDx=0;exitDy=0;exitPerimeter=0;entryX=0;entryY=0.5;entryDx=0;entryDy=0;" edge="1" parent="1">
          <mxGeometry width="160" relative="1" as="geometry">
            <mxPoint x="1000" y="153.41" as="sourcePoint" />
            <mxPoint x="1080" y="153.75000000000014" as="targetPoint" />
            <Array as="points">
              <mxPoint x="1020.0000000000002" y="153.41000000000014" />
            </Array>
          </mxGeometry>
        </mxCell>
        <mxCell id="7WhLit7YFjIoFo8CH_9x-54" value="" style="line;strokeWidth=10;html=1;rotation=90;" vertex="1" parent="1">
          <mxGeometry x="1017.5" y="247.5" width="105" height="10" as="geometry" />
        </mxCell>
        <mxCell id="7WhLit7YFjIoFo8CH_9x-67" style="edgeStyle=orthogonalEdgeStyle;rounded=0;orthogonalLoop=1;jettySize=auto;html=1;entryX=0;entryY=0.5;entryDx=0;entryDy=0;entryPerimeter=0;" edge="1" parent="1" source="7WhLit7YFjIoFo8CH_9x-55" target="7WhLit7YFjIoFo8CH_9x-63">
          <mxGeometry relative="1" as="geometry" />
        </mxCell>
        <mxCell id="7WhLit7YFjIoFo8CH_9x-55" value="&lt;div&gt;Debit Card Request&lt;/div&gt;" style="rounded=1;whiteSpace=wrap;html=1;strokeWidth=1;" vertex="1" parent="1">
          <mxGeometry x="1116" y="200" width="104" height="40" as="geometry" />
        </mxCell>
        <mxCell id="7WhLit7YFjIoFo8CH_9x-56" value="" style="endArrow=block;endSize=16;endFill=0;html=1;rounded=0;exitX=0.161;exitY=0.443;exitDx=0;exitDy=0;exitPerimeter=0;" edge="1" parent="1">
          <mxGeometry width="160" relative="1" as="geometry">
            <mxPoint x="1069.9999999999998" y="219.65999999999985" as="sourcePoint" />
            <mxPoint x="1116.24" y="219.8125" as="targetPoint" />
          </mxGeometry>
        </mxCell>
        <mxCell id="7WhLit7YFjIoFo8CH_9x-68" style="edgeStyle=orthogonalEdgeStyle;rounded=0;orthogonalLoop=1;jettySize=auto;html=1;entryX=0;entryY=0.5;entryDx=0;entryDy=0;entryPerimeter=0;" edge="1" parent="1" source="7WhLit7YFjIoFo8CH_9x-57" target="7WhLit7YFjIoFo8CH_9x-63">
          <mxGeometry relative="1" as="geometry" />
        </mxCell>
        <mxCell id="7WhLit7YFjIoFo8CH_9x-57" value="&lt;div&gt;Renew / Replacement&lt;/div&gt;" style="rounded=1;whiteSpace=wrap;html=1;strokeWidth=1;" vertex="1" parent="1">
          <mxGeometry x="1116" y="260" width="104" height="40" as="geometry" />
        </mxCell>
        <mxCell id="7WhLit7YFjIoFo8CH_9x-58" value="" style="endArrow=block;endSize=16;endFill=0;html=1;rounded=0;exitX=0.161;exitY=0.443;exitDx=0;exitDy=0;exitPerimeter=0;" edge="1" parent="1">
          <mxGeometry width="160" relative="1" as="geometry">
            <mxPoint x="1069.9999999999998" y="279.65999999999985" as="sourcePoint" />
            <mxPoint x="1116.24" y="279.8125" as="targetPoint" />
          </mxGeometry>
        </mxCell>
        <mxCell id="7WhLit7YFjIoFo8CH_9x-60" value="" style="endArrow=block;endSize=16;endFill=0;html=1;rounded=0;exitX=1;exitY=0.5;exitDx=0;exitDy=0;entryX=0;entryY=0.5;entryDx=0;entryDy=0;" edge="1" parent="1" source="7WhLit7YFjIoFo8CH_9x-39">
          <mxGeometry width="160" relative="1" as="geometry">
            <mxPoint x="985" y="257.5" as="sourcePoint" />
            <mxPoint x="1065" y="257.84000000000015" as="targetPoint" />
            <Array as="points">
              <mxPoint x="1020" y="214" />
              <mxPoint x="1020" y="258" />
            </Array>
          </mxGeometry>
        </mxCell>
        <mxCell id="7WhLit7YFjIoFo8CH_9x-61" value="" style="html=1;shape=mxgraph.sysml.actFinal;strokeWidth=2;verticalLabelPosition=bottom;verticalAlignment=top;" vertex="1" parent="1">
          <mxGeometry x="960" y="340" width="40" height="40" as="geometry" />
        </mxCell>
        <mxCell id="7WhLit7YFjIoFo8CH_9x-63" value="" style="html=1;shape=mxgraph.sysml.actFinal;strokeWidth=2;verticalLabelPosition=bottom;verticalAlignment=top;" vertex="1" parent="1">
          <mxGeometry x="1460" y="110" width="40" height="40" as="geometry" />
        </mxCell>
        <mxCell id="7WhLit7YFjIoFo8CH_9x-69" value="&lt;?xml version=&quot;1.0&quot; encoding=&quot;UTF-8&quot;?&gt;&#xa;&lt;xmi:XMI xmi:version=&quot;2.0&quot; xmlns:xmi=&quot;http://www.omg.org/XMI&quot; xmlns:xsi=&quot;http://www.w3.org/2001/XMLSchema-instance&quot; xmlns:description=&quot;http://www.eclipse.org/sirius/description/1.1.0&quot; xmlns:description_1=&quot;http://www.eclipse.org/sirius/diagram/description/1.1.0&quot; xmlns:diagram=&quot;http://www.eclipse.org/sirius/diagram/1.1.0&quot; xmlns:ecore=&quot;http://www.eclipse.org/emf/2002/Ecore&quot; xmlns:notation=&quot;http://www.eclipse.org/gmf/runtime/1.0.3/notation&quot; xmlns:viewpoint=&quot;http://www.eclipse.org/sirius/1.1.0&quot; xsi:schemaLocation=&quot;http://www.eclipse.org/sirius/description/1.1.0 http://www.eclipse.org/sirius/1.1.0#//description http://www.eclipse.org/sirius/diagram/description/1.1.0 http://www.eclipse.org/sirius/diagram/1.1.0#//description&quot;&gt;&#xa;  &lt;viewpoint:DAnalysis uid=&quot;_8p4fkGrGEeuSBJwL0pFd2A&quot; selectedViews=&quot;_88aaAGrGEeuSBJwL0pFd2A&quot; version=&quot;14.3.1.202003261200&quot;&gt;&#xa;    &lt;semanticResources&gt;hw1.ecore&lt;/semanticResources&gt;&#xa;    &lt;ownedViews xmi:type=&quot;viewpoint:DView&quot; uid=&quot;_88aaAGrGEeuSBJwL0pFd2A&quot;&gt;&#xa;      &lt;viewpoint xmi:type=&quot;description:Viewpoint&quot; href=&quot;platform:/plugin/org.eclipse.emf.ecoretools.design/description/ecore.odesign#//@ownedViewpoints[name=&#39;Design&#39;]&quot;/&gt;&#xa;      &lt;ownedRepresentationDescriptors xmi:type=&quot;viewpoint:DRepresentationDescriptor&quot; uid=&quot;_8-sR8GrGEeuSBJwL0pFd2A&quot; name=&quot;hw1&quot; repPath=&quot;#_8919YGrGEeuSBJwL0pFd2A&quot; changeId=&quot;2b104dc2-d451-4422-a957-5d07d3a7cc5d&quot;&gt;&#xa;        &lt;description xmi:type=&quot;description_1:DiagramDescription&quot; href=&quot;platform:/plugin/org.eclipse.emf.ecoretools.design/description/ecore.odesign#//@ownedViewpoints[name=&#39;Design&#39;]/@ownedRepresentations[name=&#39;Entities&#39;]&quot;/&gt;&#xa;        &lt;target xmi:type=&quot;ecore:EPackage&quot; href=&quot;hw1.ecore#/&quot;/&gt;&#xa;      &lt;/ownedRepresentationDescriptors&gt;&#xa;    &lt;/ownedViews&gt;&#xa;  &lt;/viewpoint:DAnalysis&gt;&#xa;  &lt;diagram:DSemanticDiagram uid=&quot;_8919YGrGEeuSBJwL0pFd2A&quot;&gt;&#xa;    &lt;ownedAnnotationEntries xmi:type=&quot;description:AnnotationEntry&quot; uid=&quot;_8_FTgGrGEeuSBJwL0pFd2A&quot; source=&quot;GMF_DIAGRAMS&quot;&gt;&#xa;      &lt;data xmi:type=&quot;notation:Diagram&quot; xmi:id=&quot;_8_FTgWrGEeuSBJwL0pFd2A&quot; type=&quot;Sirius&quot; element=&quot;_8919YGrGEeuSBJwL0pFd2A&quot; measurementUnit=&quot;Pixel&quot;&gt;&#xa;        &lt;styles xmi:type=&quot;notation:DiagramStyle&quot; xmi:id=&quot;_8_FTgmrGEeuSBJwL0pFd2A&quot;/&gt;&#xa;      &lt;/data&gt;&#xa;    &lt;/ownedAnnotationEntries&gt;&#xa;    &lt;ownedAnnotationEntries xmi:type=&quot;description:AnnotationEntry&quot; uid=&quot;_9Ar2AGrGEeuSBJwL0pFd2A&quot; source=&quot;DANNOTATION_CUSTOMIZATION_KEY&quot;&gt;&#xa;      &lt;data xmi:type=&quot;diagram:ComputedStyleDescriptionRegistry&quot; uid=&quot;_9Ar2AWrGEeuSBJwL0pFd2A&quot;/&gt;&#xa;    &lt;/ownedAnnotationEntries&gt;&#xa;    &lt;description xmi:type=&quot;description_1:DiagramDescription&quot; href=&quot;platform:/plugin/org.eclipse.emf.ecoretools.design/description/ecore.odesign#//@ownedViewpoints[name=&#39;Design&#39;]/@ownedRepresentations[name=&#39;Entities&#39;]&quot;/&gt;&#xa;    &lt;filterVariableHistory xmi:type=&quot;diagram:FilterVariableHistory&quot; uid=&quot;_8-Q0IGrGEeuSBJwL0pFd2A&quot;/&gt;&#xa;    &lt;activatedLayers xmi:type=&quot;description_1:Layer&quot; href=&quot;platform:/plugin/org.eclipse.emf.ecoretools.design/description/ecore.odesign#//@ownedViewpoints[name=&#39;Design&#39;]/@ownedRepresentations[name=&#39;Entities&#39;]/@defaultLayer&quot;/&gt;&#xa;    &lt;activatedLayers xmi:type=&quot;description_1:AdditionalLayer&quot; href=&quot;platform:/plugin/org.eclipse.emf.ecoretools.design/description/ecore.odesign#//@ownedViewpoints[name=&#39;Design&#39;]/@ownedRepresentations[name=&#39;Entities&#39;]/@additionalLayers[name=&#39;Package&#39;]&quot;/&gt;&#xa;    &lt;activatedLayers xmi:type=&quot;description_1:AdditionalLayer&quot; href=&quot;platform:/plugin/org.eclipse.emf.ecoretools.design/description/ecore.odesign#//@ownedViewpoints[name=&#39;Design&#39;]/@ownedRepresentations[name=&#39;Entities&#39;]/@additionalLayers[name=&#39;Validation&#39;]&quot;/&gt;&#xa;    &lt;target xmi:type=&quot;ecore:EPackage&quot; href=&quot;hw1.ecore#/&quot;/&gt;&#xa;  &lt;/diagram:DSemanticDiagram&gt;&#xa;&lt;/xmi:XMI&gt;" style="text;whiteSpace=wrap;html=1;" vertex="1" parent="1">
          <mxGeometry x="930" y="85" width="80" height="410" as="geometry" />
        </mxCell>
      </root>
    </mxGraphModel>
  </diagram>
</mxfile>
